# xmcd CD database file
#
# Track frame offsets:
#	150
#	23192
#	44744
#	68279
#	89176
#	115582
#	140811
#	163077
#	178250
#	195293
#	203487
#
# Disc length: 2963 seconds
#
# Revision: 3
# Processed by: cddbd v1.5.2PL0 Copyright (c) Steve Scherf et al.
# Submitted via: CDex 1.70beta2
#
DISCID=990b910b
DTITLE=Various Artist - This Is... R&B II Disk 2
DYEAR=1999
DGENRE=R&B
TTITLE0=Beverly Knight - Moving On Up (On The Right Side)
TTITLE1=Noreaga feat Nas and Nature - Blood Money (Part 2)
TTITLE2=LPC feat Moon - I Wanna Be Your Man (Phatboy Club Remix)
TTITLE3=Joe - No One Else Comes Close (Steve Anthonys R&B Mix)
TTITLE4=Spique feat Chinye - Not For Me (Phatboy Club Mix)
TTITLE5=Wu Tang Clan and Onyx - The Worst
TTITLE6=Imajin feat Keith Murray - Shorty (You Keep Playin' With My Mind)
TTITLE7=A Tribe Called Quest - Find A Way
TTITLE8=Nicci Hall - My Family Say
TTITLE9=Notorious B.I.G. - Road To Riches
TTITLE10=Hilary feat Blak Twang - It's On
EXTD=this is... R&B Vol II Disk two\nwww.beechwoodmusic.net YEAR: 1999
EXTT0=
EXTT1=
EXTT2=
EXTT3=
EXTT4=
EXTT5=
EXTT6=
EXTT7=
EXTT8=
EXTT9=
EXTT10=
PLAYORDER=
